9
Nine
Nove

---------------------------
Link to the orgiginal release: 
http://forum.tntvillage.scambioetico.org/tntforum/index.php?showtopic=255065&view=findpost&p=12505222
---------------------------

9 is a 2009 American computer-animated science fantasy film directed by Shane Acker and produced by Tim Burton and Timur Bekmambetov. The film stars the voices of Elijah Wood, John C. Reilly, Jennifer Connelly, Crispin Glover, Martin Landau and Christopher Plummer.[2][3] It is based on Acker's Academy Award-nominated 2005 short film of the same name.[4] The screenplay for the film was written by Pamela Pettler, with casting by Mindy Marin, production design by Robert St. Pierre and Fred Warter, and art direction by Christophe Vacher.

.: INFO :.

Also Known As: 	
Nine
Production Status: 	Released
Genres: 	Action/Adventure, Science Fiction/Fantasy, Animation and Adaptation
Running Time: 	1 hr. 19 min.
Release Date: 	September 9th, 2009 (wide)
MPAA Rating: 	PG-13 for violence and scary images.
Production Co.: 	
Starz Animation Toronto
Oncore Productions
Skywalker Sound
Air Studios, London
Studios: 	
Focus Features
U.S. Box Office: 	$31,743,332
Filming Locations: 	
Luxembourg
Toronto, Ontario Canada
Toronto, Ontario, Canada
Produced in: 	United States 

.: CAST :.

Alan Oppenheimer 	Scientist
Tom Kane 	Dictator
Christopher Plummer 	Voice of #1
Martin Landau 	Voice of #2
John C. Reilly 	Voice of #3
Crispin Glover 	Voice of #6
Jennifer Connelly 	Voice of #7
Fred Tatasciore (II) 	Voice of #8
Elijah Wood 	Voice of #9

.: STORYLINE :.

The time is the too-near future. Powered and enabled by the invention known as the Great Machine, the world's machines have turned on mankind and sparked social unrest, decimating the human population before being largely shut down. But as our world fell to pieces, a mission began to salvage the legacy of civilization; a group of small creations was given the spark of life by a scientist in the final days of humanity, and they continue to exist post-apocalypse. With their group so few, these "stitchpunk" creations must summon individual strengths well beyond their own proportions in order to outwit and fight against still-functioning machines, one of which is a marauding mechanized beast. 

.: SPECIFICS :.

General

Unique ID : 188471459542170356011414829404438479837 (0x8DCA4862EC97A5DFA890BEEDDFBD43DD)
Format : Matroska
File size : 1.44 GiB
Duration : 1h 19mn
Overall bit rate : 2 596 Kbps
Encoded date : UTC 2011-06-09 09:34:43
Writing application : mkvmerge v4.6.0 ('Still Crazy After All These Years') built on Mar 10
2011 02:50:32
Writing library : libebml v1.2.0 + libmatroska v1.1.0

Video

ID : 4
Format : AVC
Format/Info : Advanced Video Codec
Format profile : High@L4.1
Format settings, CABAC : Yes
Format settings, ReFrames : 5 frames
Muxing mode : Header stripping
Codec ID : V_MPEG4/ISO/AVC
Duration : 1h 19mn
Bit rate : 2 320 Kbps
Nominal bit rate : 2 480 Kbps
Width : 1 280 pixels
Height : 720 pixels
Display aspect ratio : 16:9
Frame rate : 23.976 fps
Color space : YUV
Chroma subsampling : 4:2:0
Bit depth : 8 bits
Scan type : Progressive
Bits/(Pixel*Frame) : 0.105
Stream size : 1.28 GiB (89%)
Writing library : x264 core 75 r1247 b3efbe5
Encoding settings : cabac=1 / ref=5 / deblock=1:-1:-3 / analyse=0x3:0x113 / me=umh /
subme=9 / psy=1 / psy_rd=1.0:0.0 / mixed_ref=1 / me_range=16 / chroma_me=1 / trellis=2 /
8x8dct=1 / cqm=2 / deadzone=21,11 / chroma_qp_offset=-2 / threads=6 / nr=0 / decimate=1 /
mbaff=0 / bframes=3 / b_pyramid=0 / b_adapt=2 / b_bias=0 / direct=3 / wpredb=1 / keyint=250 /
keyint_min=25 / scenecut=40 / rc_lookahead=0 / rc=2pass / mbtree=0 / bitrate=2480 / ratetol=1.0
/ qcomp=0.60 / qpmin=10 / qpmax=51 / qpstep=4 / cplxblur=20.0 / qblur=0.5 /
vbv_maxrate=50000 / vbv_bufsize=50000 / ip_ratio=1.40 / pb_ratio=1.30 / aq=1:1.00
Language : English

Audio

ID : 5
Format : AC-3
Format/Info : Audio Coding 3
Mode extension : CM (complete main)
Muxing mode : Header stripping
Codec ID : A_AC3
Duration : 1h 19mn
Bit rate mode : Constant
Bit rate : 224 Kbps
Channel(s) : 6 channels
Channel positions : Front: L C R, Side: L R, LFE
Sampling rate : 48.0 KHz
Bit depth : 16 bits
Compression mode : Lossy
Stream size : 127 MiB (9%)
Language : English

Text #1

ID : 1
Format : UTF-8
Codec ID : S_TEXT/UTF8
Codec ID/Info : UTF-8 Plain Text
Language : Italian

Text #2

ID : 2
Format : UTF-8
Codec ID : S_TEXT/UTF8
Codec ID/Info : UTF-8 Plain Text
Language : Portuguese

Text #3

ID : 3
Format : UTF-8
Codec ID : S_TEXT/UTF8
Codec ID/Info : UTF-8 Plain Text
Language : Spanish

Text #4

ID : 6
Format : UTF-8
Codec ID : S_TEXT/UTF8
Codec ID/Info : UTF-8 Plain Text
Language : Dutch

Text #5

ID : 7
Format : UTF-8
Codec ID : S_TEXT/UTF8
Codec ID/Info : UTF-8 Plain Text
Language : English

Text #6

ID : 8
Format : UTF-8
Codec ID : S_TEXT/UTF8
Codec ID/Info : UTF-8 Plain Text
Language : French
